<svg width="24" height="24" viewBox="0 0 24 24" fill="none" xmlns="http://www.w3.org/2000/svg">
<path fill-rule="evenodd" clip-rule="evenodd" d="M20.7824 18.3456C20.8888 17.0372 21 14.9604 21 12C21 9.0396 20.8888 6.9628 20.7824 5.6544C20.6756 4.3392 19.6608 3.3244 18.3456 3.2176C17.0372 3.1112 14.9608 3 12 3C9.0396 3 6.9628 3.1112 5.6544 3.2176C4.3392 3.3244 3.3244 4.3392 3.2176 5.6544C3.1112 6.9628 3 9.0396 3 12C3 14.9604 3.1112 17.0372 3.2176 18.3456C3.3244 19.6608 4.3392 20.6756 5.6544 20.7824C6.9628 20.8888 9.0396 21 12 21C14.9604 21 17.0372 20.8888 18.3456 20.7824C19.6608 20.6756 20.6756 19.6608 20.7824 18.3456ZM13.0744 16.8704C13.3727 17.0889 13.7417 17.1884 14.1095 17.1497C14.4772 17.1109 14.8174 16.9367 15.0636 16.6608C16.574 14.9632 17.5432 13.4488 18.028 12.6136C18.282 12.1764 18.3496 11.6344 17.9708 11.2996C17.8681 11.2089 17.7578 11.1271 17.6412 11.0552C17.1516 10.7536 16.604 11.054 16.2372 11.4968C15.636 12.2232 14.6784 13.3636 13.99 14.1048C13.9261 14.1746 13.8384 14.218 13.7442 14.2266C13.6499 14.2352 13.5559 14.2083 13.4804 14.1512C12.8684 13.6908 12.106 13.0352 11.4972 12.496C10.8884 11.9564 9.9712 11.936 9.3876 12.5028C8.3884 13.474 7.3576 14.612 6.4976 15.6188C5.9508 16.2588 5.8856 17.1948 6.5164 17.7528C6.68399 17.9002 6.86089 18.0366 7.046 18.1612C7.7888 18.6572 8.714 18.2668 9.1836 17.5068C9.5864 16.8548 10.0868 16.0728 10.5376 15.452C10.5689 15.4095 10.6084 15.3737 10.6539 15.3468C10.6993 15.32 10.7497 15.3026 10.802 15.2957C10.8544 15.2888 10.9076 15.2925 10.9584 15.3066C11.0093 15.3208 11.0568 15.3451 11.098 15.378C11.7481 15.8867 12.407 16.3845 13.0744 16.8704ZM6 6.8C6 6.58783 6.08429 6.38434 6.23431 6.23431C6.38434 6.08428 6.58783 6 6.8 6L10.8 6C11.0122 6 11.2157 6.08428 11.3657 6.23431C11.5157 6.38434 11.6 6.58783 11.6 6.8C11.6 7.01217 11.5157 7.21566 11.3657 7.36568C11.2157 7.51571 11.0122 7.6 10.8 7.6H6.8C6.58783 7.6 6.38434 7.51571 6.23431 7.36568C6.08429 7.21566 6 7.01217 6 6.8Z" fill="#9498AF"/>
</svg>
